<svg xmlns="http://www.w3.org/2000/svg" viewBox="0 0 96 96" role="img" aria-labelledby="title desc">
  <title id="title">Siobar logo</title>
  <desc id="desc">Rounded square with S letter</desc>
  <defs>
    <linearGradient id="g" x1="0%" y1="0%" x2="100%" y2="100%">
      <stop stop-color="#1f7ae0" offset="0%" />
      <stop stop-color="#0f3c99" offset="100%" />
    </linearGradient>
  </defs>
  <rect x="8" y="8" width="80" height="80" rx="18" fill="url(#g)" />
  <path d="M32 30c0-3.5 3.2-6 7-6h18c5 0 9 3.5 9 8 0 7-7 10-15 12l-8 2c-5 1.2-7 3-7 6 0 3.2 2.8 5 6 5h18c1.7 0 3 1.3 3 3s-1.3 3-3 3H39c-7 0-11-4.5-11-10.5 0-6.7 4.8-10.8 12-12.5l8.5-2c5.5-1.2 9.5-3 9.5-6 0-2.8-2.5-4.5-5.5-4.5H39c-1.7 0-3-1.3-3-3Z" fill="#f4f8ff" />
</svg>